<?xml version="1.0" encoding="UTF-8" standalone="no"?>
<svg
   xmlns:dc="http://purl.org/dc/elements/1.1/"
   xmlns:cc="http://creativecommons.org/ns#"
   xmlns:rdf="http://www.w3.org/1999/02/22-rdf-syntax-ns#"
   xmlns:svg="http://www.w3.org/2000/svg"
   xmlns="http://www.w3.org/2000/svg"
   version="1.1"
   id="svg2"
   height="1024.6598"
   width="1019.8298">
  <defs
     id="defs4">
    <marker
       style="overflow:visible"
       id="Arrow1Sstart"
       refX="0"
       refY="0"
       orient="auto">
      <path
         transform="matrix(0.2,0,0,0.2,1.2,0)"
         style="fill-rule:evenodd;stroke:#000000;stroke-width:1pt;marker-start:none"
         d="M 0,0 5,-5 -12.5,0 5,5 0,0 Z"
         id="path3898" />
    </marker>
    <marker
       style="overflow:visible"
       id="Arrow1Send"
       refX="0"
       refY="0"
       orient="auto">
      <path
         transform="matrix(-0.2,0,0,-0.2,-1.2,0)"
         style="fill-rule:evenodd;stroke:#000000;stroke-width:1pt;marker-start:none"
         d="M 0,0 5,-5 -12.5,0 5,5 0,0 Z"
         id="path3901" />
    </marker>
  </defs>
  <metadata
     id="metadata7">
    <rdf:RDF>
      <cc:Work
         rdf:about="">
        <dc:format>image/svg+xml</dc:format>
        <dc:type
           rdf:resource="http://purl.org/dc/dcmitype/StillImage" />
        <dc:title></dc:title>
      </cc:Work>
    </rdf:RDF>
  </metadata>
  <g
     transform="translate(-45.571427,-640.48493)"
     id="layer1">
    <path
       id="path4327"
       d="m 159.85714,1372.7174 0,-23.8107 c 0,0 -3.40869,-5.1313 -8.07566,-5.5156 -4.66698,-0.3843 -9.12038,-0.247 -12.37279,1.9566 -3.2524,2.2037 -5.00063,14.3078 -8.02881,19.0759 -3.02816,4.7682 -5.49058,7.5618 -10.90823,8.2938"
       style="fill:#a391ff;fill-opacity:1;stroke:#000000;stroke-width:0;stroke-linecap:butt;stroke-linejoin:miter;stroke-miterlimit:4;stroke-dasharray:none;stroke-opacity:1" />
    <path
       style="fill:#a391ff;fill-opacity:1;stroke:#000000;stroke-width:0;stroke-linecap:butt;stroke-linejoin:miter;stroke-miterlimit:4;stroke-dasharray:none;stroke-opacity:1"
       d="m 159.85714,1372.7174 0,-23.8107 c 0,0 3.40866,-5.1313 8.07563,-5.5156 4.66698,-0.3843 9.1204,-0.247 12.3728,1.9566 3.2524,2.2037 5.00063,14.3078 8.02881,19.0759 3.02817,4.7682 5.49058,7.5618 10.90823,8.2938"
       id="path4329" />
    <path
       id="path4331"
       d="m 159.85714,1333.3594 0,39.358"
       style="fill:none;stroke:#0000ff;stroke-width:7.99999142;stroke-linecap:butt;stroke-linejoin:miter;stroke-miterlimit:4;stroke-dasharray:none;stroke-opacity:1" />
    <path
       style="fill:#a391ff;fill-opacity:1;stroke:#000000;stroke-width:0;stroke-linecap:butt;stroke-linejoin:miter;stroke-miterlimit:4;stroke-dasharray:none;stroke-opacity:1"
       d="m 159.85714,1372.7174 0,-23.8107 c 0,0 -3.40869,-5.1313 -8.07566,-5.5156 -4.66698,-0.3843 -9.12038,-0.247 -12.37279,1.9566 -3.2524,2.2037 -5.00063,14.3078 -8.02881,19.0759 -3.02816,4.7682 -5.49058,7.5618 -10.90823,8.2938"
       id="path4333" />
    <path
       id="path4335"
       d="m 159.85714,1372.7174 0,-23.8107 c 0,0 3.40866,-5.1313 8.07563,-5.5156 4.66698,-0.3843 9.1204,-0.247 12.3728,1.9566 3.2524,2.2037 5.00063,14.3078 8.02881,19.0759 3.02817,4.7682 5.49058,7.5618 10.90823,8.2938"
       style="fill:#a391ff;fill-opacity:1;stroke:#000000;stroke-width:0;stroke-linecap:butt;stroke-linejoin:miter;stroke-miterlimit:4;stroke-dasharray:none;stroke-opacity:1" />
    <path
       style="fill:none;stroke:#0000ff;stroke-width:7.99999142;stroke-linecap:butt;stroke-linejoin:miter;stroke-miterlimit:4;stroke-dasharray:none;stroke-opacity:1"
       d="m 159.85714,1333.3594 0,39.358"
       id="path4337" />
    <path
       id="path4303"
       d="m 243.33602,1642.1447 0,-44.7038 c 0,0 -3.40868,-9.6337 -8.07565,-10.3552 -4.66698,-0.7215 -9.12038,-0.4638 -12.37279,3.6735 -3.2524,4.1372 -5.00062,26.8621 -8.0288,35.8142 -3.02817,8.952 -5.49059,14.1971 -10.90824,15.5713"
       style="fill:#a391ff;fill-opacity:1;stroke:#000000;stroke-width:0;stroke-linecap:butt;stroke-linejoin:miter;stroke-miterlimit:4;stroke-dasharray:none;stroke-opacity:1" />
    <path
       style="fill:#a391ff;fill-opacity:1;stroke:#000000;stroke-width:0;stroke-linecap:butt;stroke-linejoin:miter;stroke-miterlimit:4;stroke-dasharray:none;stroke-opacity:1"
       d="m 243.33602,1642.1447 0,-44.7038 c 0,0 3.40868,-9.6337 8.07564,-10.3552 4.66698,-0.7215 9.1204,-0.4638 12.3728,3.6735 3.2524,4.1372 5.00063,26.8621 8.02881,35.8142 3.02817,8.952 5.49058,14.1971 10.90823,15.5713"
       id="path4305" />
    <path
       id="path4307"
       d="m 243.33602,1568.2514 0,73.8933"
       style="fill:none;stroke:#0000ff;stroke-width:7.99999237;stroke-linecap:butt;stroke-linejoin:miter;stroke-miterlimit:4;stroke-dasharray:none;stroke-opacity:1" />
    <path
       style="fill:#a391ff;fill-opacity:1;stroke:#000000;stroke-width:0;stroke-linecap:butt;stroke-linejoin:miter;stroke-miterlimit:4;stroke-dasharray:none;stroke-opacity:1"
       d="m 897.75963,1146.4185 0,-86.8578 c 0,0 -3.40868,-18.7179 -8.07564,-20.1198 -4.66698,-1.4019 -9.12039,-0.9011 -12.3728,7.1374 -3.25239,8.0385 -5.00062,52.1921 -8.0288,69.5857 -3.02817,17.3935 -5.49058,27.5844 -10.90824,30.2545"
       id="path4454" />
    <path
       id="path4456"
       d="m 897.75963,1146.4185 0,-86.8578 c 0,0 3.40868,-18.7179 8.07565,-20.1198 4.66698,-1.4019 9.12039,-0.9011 12.3728,7.1374 3.2524,8.0385 5.00062,52.1921 8.0288,69.5857 3.02817,17.3935 5.49059,27.5844 10.90824,30.2545"
       style="fill:#a391ff;fill-opacity:1;stroke:#000000;stroke-width:0;stroke-linecap:butt;stroke-linejoin:miter;stroke-miterlimit:4;stroke-dasharray:none;stroke-opacity:1" />
    <path
       style="fill:#a391ff;fill-opacity:1;stroke:#000000;stroke-width:0;stroke-linecap:butt;stroke-linejoin:miter;stroke-miterlimit:4;stroke-dasharray:none;stroke-opacity:1"
       d="m 742.6137,1146.919 0,-23.8107 c 0,0 -3.40869,-5.1313 -8.07566,-5.5156 -4.66698,-0.3843 -9.12038,-0.247 -12.37279,1.9566 -3.2524,2.2037 -5.00063,14.3078 -8.02881,19.0759 -3.02816,4.7682 -5.49058,7.5618 -10.90823,8.2938"
       id="path4460" />
    <path
       id="path4462"
       d="m 742.6137,1146.919 0,-23.8107 c 0,0 3.40866,-5.1313 8.07563,-5.5156 4.66698,-0.3843 9.1204,-0.247 12.3728,1.9566 3.2524,2.2037 5.00063,14.3078 8.02881,19.0759 3.02817,4.7682 5.49058,7.5618 10.90823,8.2938"
       style="fill:#a391ff;fill-opacity:1;stroke:#000000;stroke-width:0;stroke-linecap:butt;stroke-linejoin:miter;stroke-miterlimit:4;stroke-dasharray:none;stroke-opacity:1" />
    <path
       style="fill:none;stroke:#0000ff;stroke-width:7.99999142;stroke-linecap:butt;stroke-linejoin:miter;stroke-miterlimit:4;stroke-dasharray:none;stroke-opacity:1"
       d="m 742.6137,1107.561 0,39.358"
       id="path4464" />
    <path
       style="fill:#a391ff;fill-opacity:1;stroke:#000000;stroke-width:0;stroke-linecap:butt;stroke-linejoin:miter;stroke-miterlimit:4;stroke-dasharray:none;stroke-opacity:1"
       d="m 957.05059,1146.4185 0,-36.1481 c 0,0 -1.72276,-7.79 -4.08146,-8.3734 -2.35868,-0.5834 -4.60944,-0.375 -6.25322,2.9705 -1.64376,3.3454 -2.52732,21.721 -4.05776,28.9598 -1.53045,7.2387 -2.77496,11.48 -5.51303,12.5912"
       id="path4472" />
    <path
       id="path4474"
       d="m 957.05059,1146.4185 0,-36.1481 c 0,0 1.72274,-7.79 4.08145,-8.3734 2.35863,-0.5834 4.60944,-0.375 6.25324,2.9705 1.64373,3.3454 2.52731,21.721 4.05776,28.9598 1.53049,7.2387 2.77502,11.48 5.51297,12.5912"
       style="fill:#a391ff;fill-opacity:1;stroke:#000000;stroke-width:0;stroke-linecap:butt;stroke-linejoin:miter;stroke-miterlimit:4;stroke-dasharray:none;stroke-opacity:1" />
    <path
       style="fill:none;stroke:#0000ff;stroke-width:7.99999285;stroke-linecap:butt;stroke-linejoin:miter;stroke-miterlimit:4;stroke-dasharray:none;stroke-opacity:1"
       d="m 957.05059,1086.6673 0,59.7512"
       id="path4476" />
    <path
       id="path4478"
       d="m 825.18388,1146.4185 0,-44.7038 c 0,0 -3.40868,-9.6337 -8.07565,-10.3552 -4.66698,-0.7215 -9.12038,-0.4638 -12.37279,3.6735 -3.2524,4.1372 -5.00062,26.8621 -8.0288,35.8142 -3.02817,8.952 -5.49059,14.1971 -10.90824,15.5713"
       style="fill:#a391ff;fill-opacity:1;stroke:#000000;stroke-width:0;stroke-linecap:butt;stroke-linejoin:miter;stroke-miterlimit:4;stroke-dasharray:none;stroke-opacity:1" />
    <path
       style="fill:#a391ff;fill-opacity:1;stroke:#000000;stroke-width:0;stroke-linecap:butt;stroke-linejoin:miter;stroke-miterlimit:4;stroke-dasharray:none;stroke-opacity:1"
       d="m 825.18388,1146.4185 0,-44.7038 c 0,0 3.40868,-9.6337 8.07564,-10.3552 4.66698,-0.7215 9.1204,-0.4638 12.3728,3.6735 3.2524,4.1372 5.00063,26.8621 8.02881,35.8142 3.02817,8.952 5.49058,14.1971 10.90823,15.5713"
       id="path4480" />
    <path
       id="path4482"
       d="m 825.18388,1072.5252 0,73.8933"
       style="fill:none;stroke:#0000ff;stroke-width:7.99999237;stroke-linecap:butt;stroke-linejoin:miter;stroke-miterlimit:4;stroke-dasharray:none;stroke-opacity:1" />
    <path
       id="path4484"
       d="m 897.75963,1146.4185 0,-86.8578 c 0,0 -3.40868,-18.7179 -8.07564,-20.1198 -4.66698,-1.4019 -9.12039,-0.9011 -12.3728,7.1374 -3.25239,8.0385 -5.00062,52.1921 -8.0288,69.5857 -3.02817,17.3935 -5.49058,27.5844 -10.90824,30.2545"
       style="fill:#a391ff;fill-opacity:1;stroke:#000000;stroke-width:0;stroke-linecap:butt;stroke-linejoin:miter;stroke-miterlimit:4;stroke-dasharray:none;stroke-opacity:1" />
    <path
       style="fill:#a391ff;fill-opacity:1;stroke:#000000;stroke-width:0;stroke-linecap:butt;stroke-linejoin:miter;stroke-miterlimit:4;stroke-dasharray:none;stroke-opacity:1"
       d="m 897.75963,1146.4185 0,-86.8578 c 0,0 3.40868,-18.7179 8.07565,-20.1198 4.66698,-1.4019 9.12039,-0.9011 12.3728,7.1374 3.2524,8.0385 5.00062,52.1921 8.0288,69.5857 3.02817,17.3935 5.49059,27.5844 10.90824,30.2545"
       id="path4486" />
    <path
       id="path4488"
       d="m 742.6137,1146.919 0,-23.8107 c 0,0 -3.40869,-5.1313 -8.07566,-5.5156 -4.66698,-0.3843 -9.12038,-0.247 -12.37279,1.9566 -3.2524,2.2037 -5.00063,14.3078 -8.02881,19.0759 -3.02816,4.7682 -5.49058,7.5618 -10.90823,8.2938"
       style="fill:#a391ff;fill-opacity:1;stroke:#000000;stroke-width:0;stroke-linecap:butt;stroke-linejoin:miter;stroke-miterlimit:4;stroke-dasharray:none;stroke-opacity:1" />
    <path
       style="fill:#a391ff;fill-opacity:1;stroke:#000000;stroke-width:0;stroke-linecap:butt;stroke-linejoin:miter;stroke-miterlimit:4;stroke-dasharray:none;stroke-opacity:1"
       d="m 742.6137,1146.919 0,-23.8107 c 0,0 3.40866,-5.1313 8.07563,-5.5156 4.66698,-0.3843 9.1204,-0.247 12.3728,1.9566 3.2524,2.2037 5.00063,14.3078 8.02881,19.0759 3.02817,4.7682 5.49058,7.5618 10.90823,8.2938"
       id="path4490" />
    <path
       id="path4492"
       d="m 742.6137,1107.561 0,39.358"
       style="fill:none;stroke:#0000ff;stroke-width:7.99999142;stroke-linecap:butt;stroke-linejoin:miter;stroke-miterlimit:4;stroke-dasharray:none;stroke-opacity:1" />
    <path
       id="path4500"
       d="m 957.05059,1146.4185 0,-36.1481 c 0,0 -1.72276,-7.79 -4.08146,-8.3734 -2.35868,-0.5834 -4.60944,-0.375 -6.25322,2.9705 -1.64376,3.3454 -2.52732,21.721 -4.05776,28.9598 -1.53045,7.2387 -2.77496,11.48 -5.51303,12.5912"
       style="fill:#a391ff;fill-opacity:1;stroke:#000000;stroke-width:0;stroke-linecap:butt;stroke-linejoin:miter;stroke-miterlimit:4;stroke-dasharray:none;stroke-opacity:1" />
    <path
       style="fill:#a391ff;fill-opacity:1;stroke:#000000;stroke-width:0;stroke-linecap:butt;stroke-linejoin:miter;stroke-miterlimit:4;stroke-dasharray:none;stroke-opacity:1"
       d="m 957.05059,1146.4185 0,-36.1481 c 0,0 1.72274,-7.79 4.08145,-8.3734 2.35863,-0.5834 4.60944,-0.375 6.25324,2.9705 1.64373,3.3454 2.52731,21.721 4.05776,28.9598 1.53049,7.2387 2.77502,11.48 5.51297,12.5912"
       id="path4502" />
    <path
       id="path4504"
       d="m 957.05059,1086.6673 0,59.7512"
       style="fill:none;stroke:#0000ff;stroke-width:7.99999285;stroke-linecap:butt;stroke-linejoin:miter;stroke-miterlimit:4;stroke-dasharray:none;stroke-opacity:1" />
    <path
       style="fill:#a391ff;fill-opacity:1;stroke:#000000;stroke-width:0;stroke-linecap:butt;stroke-linejoin:miter;stroke-miterlimit:4;stroke-dasharray:none;stroke-opacity:1"
       d="m 825.18388,1146.4185 0,-44.7038 c 0,0 -3.40868,-9.6337 -8.07565,-10.3552 -4.66698,-0.7215 -9.12038,-0.4638 -12.37279,3.6735 -3.2524,4.1372 -5.00062,26.8621 -8.0288,35.8142 -3.02817,8.952 -5.49059,14.1971 -10.90824,15.5713"
       id="path4506" />
    <path
       id="path4508"
       d="m 825.18388,1146.4185 0,-44.7038 c 0,0 3.40868,-9.6337 8.07564,-10.3552 4.66698,-0.7215 9.1204,-0.4638 12.3728,3.6735 3.2524,4.1372 5.00063,26.8621 8.02881,35.8142 3.02817,8.952 5.49058,14.1971 10.90823,15.5713"
       style="fill:#a391ff;fill-opacity:1;stroke:#000000;stroke-width:0;stroke-linecap:butt;stroke-linejoin:miter;stroke-miterlimit:4;stroke-dasharray:none;stroke-opacity:1" />
    <path
       style="fill:none;stroke:#0000ff;stroke-width:7.99999237;stroke-linecap:butt;stroke-linejoin:miter;stroke-miterlimit:4;stroke-dasharray:none;stroke-opacity:1"
       d="m 825.18388,1072.5252 0,73.8933"
       id="path4510" />
    <path
       style="fill:none;stroke:#0000ff;stroke-width:7.99999237;stroke-linecap:butt;stroke-linejoin:miter;stroke-miterlimit:4;stroke-dasharray:none;stroke-opacity:1"
       d="m 897.75963,1002.8465 0,143.572"
       id="path4458" />
    <path
       id="path4386"
       d="m 487.27653,807.88911 0,-44.70377 c 0,0 -3.40869,-9.63373 -8.07566,-10.35526 -4.66698,-0.72152 -9.12038,-0.46373 -12.37279,3.67348 -3.2524,4.13722 -5.00063,26.86215 -8.0288,35.8142 -3.02817,8.95207 -5.49059,14.19712 -10.90824,15.57135"
       style="fill:#a391ff;fill-opacity:1;stroke:#000000;stroke-width:0;stroke-linecap:butt;stroke-linejoin:miter;stroke-miterlimit:4;stroke-dasharray:none;stroke-opacity:1" />
    <path
       style="fill:#a391ff;fill-opacity:1;stroke:#000000;stroke-width:0;stroke-linecap:butt;stroke-linejoin:miter;stroke-miterlimit:4;stroke-dasharray:none;stroke-opacity:1"
       d="m 487.27653,807.88911 0,-44.70377 c 0,0 3.40866,-9.63373 8.07564,-10.35526 4.66697,-0.72152 9.1204,-0.46373 12.37279,3.67348 3.2524,4.13722 5.00064,26.86215 8.02881,35.8142 3.02818,8.95207 5.49059,14.19712 10.90823,15.57135"
       id="path4388" />
    <path
       id="path4390"
       d="m 487.27653,733.99579 0,73.89332"
       style="fill:none;stroke:#0000ff;stroke-width:7.99999237;stroke-linecap:butt;stroke-linejoin:miter;stroke-miterlimit:4;stroke-dasharray:none;stroke-opacity:1" />
    <path
       id="path3797"
       d="m 1043.3768,949.75794 -974.805371,0 c 0,0 356.507701,-1.85752 475.148771,1.18507 118.64107,3.04259 201.31836,-87.95237 281.58426,-87.79921 80.2659,0.15315 142.31092,72.472 216.05204,81.56338"
       style="fill:#ff0000;fill-opacity:1;stroke:#ff0000;stroke-width:5;stroke-linecap:butt;stroke-linejoin:miter;stroke-miterlimit:4;stroke-dasharray:none;stroke-opacity:1" />
    <path
       id="path2989"
       d="m 68.57143,660.48493 -1e-6,148.46156 335.643271,0 m 17.54696,-0.3044 623.58654,0.3044"
       style="fill:none;stroke:#000000;stroke-width:6;stroke-linecap:butt;stroke-linejoin:miter;stroke-miterlimit:4;stroke-dasharray:none;stroke-opacity:1" />
    <path
       id="path3793"
       d="m 405.09414,769.24282 c -12.26856,12.18999 -2.63768,25.69517 0,39.39927 1.95608,7.5848 -0.20833,23.54658 -10.48842,35.11672"
       style="fill:none;stroke:#000000;stroke-width:5;stroke-linecap:butt;stroke-linejoin:miter;stroke-miterlimit:4;stroke-dasharray:none;stroke-opacity:1" />
    <path
       style="fill:none;stroke:#000000;stroke-width:5;stroke-linecap:butt;stroke-linejoin:miter;stroke-miterlimit:4;stroke-dasharray:none;stroke-opacity:1"
       d="m 421.76166,769.24282 c -12.26856,12.18999 -2.63768,25.69517 0,39.39927 1.95608,7.5848 -0.20833,23.54658 -10.48842,35.11672"
       id="path3795" />
    <path
       style="fill:none;stroke:#0000ff;stroke-width:8;stroke-linecap:butt;stroke-linejoin:miter;stroke-miterlimit:4;stroke-dasharray:none;stroke-opacity:1"
       d="m 651.43764,964.79253 0,181.62597"
       id="path4263" />
    <path
       style="fill:none;stroke:#000000;stroke-width:6;stroke-linecap:butt;stroke-linejoin:miter;stroke-miterlimit:4;stroke-dasharray:none;stroke-opacity:1"
       d="m 68.571429,996.37649 -10e-7,150.04201 336.960322,0 m 16.07143,0 623.74502,3.0304"
       id="path4273" />
    <path
       style="fill:none;stroke:#000000;stroke-width:5;stroke-linecap:butt;stroke-linejoin:miter;stroke-miterlimit:4;stroke-dasharray:none;stroke-opacity:1"
       d="m 405.53175,1110.5891 c -12.26856,12.19 -2.63768,25.6952 0,39.3993 1.95608,7.5848 -0.20833,23.5465 -10.48842,35.1167"
       id="path4277" />
    <path
       id="path4279"
       d="m 422.19927,1110.5891 c -12.26856,12.19 -2.63768,25.6952 0,39.3993 1.95608,7.5848 -0.20833,23.5465 -10.48842,35.1167"
       style="fill:none;stroke:#000000;stroke-width:5;stroke-linecap:butt;stroke-linejoin:miter;stroke-miterlimit:4;stroke-dasharray:none;stroke-opacity:1" />
    <path
       id="path4362"
       d="m 898.75217,805.91903 0,-86.85777 c 0,0 -3.40868,-18.71799 -8.07564,-20.11988 -4.66698,-1.40189 -9.12039,-0.90103 -12.3728,7.13742 -3.25239,8.03847 -5.00062,52.19216 -8.0288,69.58567 -3.02817,17.39353 -5.49058,27.58447 -10.90824,30.25456"
       style="fill:#a391ff;fill-opacity:1;stroke:#000000;stroke-width:0;stroke-linecap:butt;stroke-linejoin:miter;stroke-miterlimit:4;stroke-dasharray:none;stroke-opacity:1" />
    <path
       style="fill:#a391ff;fill-opacity:1;stroke:#000000;stroke-width:0;stroke-linecap:butt;stroke-linejoin:miter;stroke-miterlimit:4;stroke-dasharray:none;stroke-opacity:1"
       d="m 898.75217,805.91903 0,-86.85777 c 0,0 3.40868,-18.71799 8.07565,-20.11988 4.66698,-1.40189 9.12039,-0.90103 12.3728,7.13742 3.2524,8.03847 5.00062,52.19216 8.0288,69.58567 3.02817,17.39353 5.49059,27.58447 10.90824,30.25456"
       id="path4364" />
    <path
       id="path4366"
       d="m 898.75217,662.34705 0,143.57198"
       style="fill:none;stroke:#0000ff;stroke-width:7.99999237;stroke-linecap:butt;stroke-linejoin:miter;stroke-miterlimit:4;stroke-dasharray:none;stroke-opacity:1" />
    <path
       id="path4368"
       d="m 743.60624,806.41954 0,-30.72476 c 0,0 -3.40869,-6.62123 -8.07566,-7.11714 -4.66698,-0.4959 -9.12038,-0.31873 -12.37279,2.52477 -3.2524,2.8435 -5.00063,18.46227 -8.02881,24.61499 -3.02816,6.15273 -5.49058,9.75764 -10.90823,10.70214"
       style="fill:#a391ff;fill-opacity:1;stroke:#000000;stroke-width:0;stroke-linecap:butt;stroke-linejoin:miter;stroke-miterlimit:4;stroke-dasharray:none;stroke-opacity:1" />
    <path
       style="fill:#a391ff;fill-opacity:1;stroke:#000000;stroke-width:0;stroke-linecap:butt;stroke-linejoin:miter;stroke-miterlimit:4;stroke-dasharray:none;stroke-opacity:1"
       d="m 743.60624,806.41954 0,-30.72476 c 0,0 3.40866,-6.62123 8.07563,-7.11714 4.66698,-0.4959 9.1204,-0.31873 12.3728,2.52477 3.2524,2.8435 5.00063,18.46227 8.02881,24.61499 3.02817,6.15273 5.49058,9.75764 10.90823,10.70214"
       id="path4370" />
    <path
       id="path4372"
       d="m 743.60624,755.63289 0,50.78665"
       style="fill:none;stroke:#0000ff;stroke-width:7.99999142;stroke-linecap:butt;stroke-linejoin:miter;stroke-miterlimit:4;stroke-dasharray:none;stroke-opacity:1" />
    <path
       id="path4380"
       d="m 958.04313,805.91903 0,-44.70377 c 0,0 -1.72276,-9.63374 -4.08146,-10.35526 -2.35868,-0.72152 -4.60944,-0.46374 -6.25322,3.67348 -1.64376,4.13721 -2.52732,26.86214 -4.05776,35.8142 -1.53045,8.95206 -2.77496,14.19711 -5.51303,15.57135"
       style="fill:#a391ff;fill-opacity:1;stroke:#000000;stroke-width:0;stroke-linecap:butt;stroke-linejoin:miter;stroke-miterlimit:4;stroke-dasharray:none;stroke-opacity:1" />
    <path
       style="fill:#a391ff;fill-opacity:1;stroke:#000000;stroke-width:0;stroke-linecap:butt;stroke-linejoin:miter;stroke-miterlimit:4;stroke-dasharray:none;stroke-opacity:1"
       d="m 958.04313,805.91903 0,-44.70377 c 0,0 1.72274,-9.63374 4.08145,-10.35526 2.35863,-0.72152 4.60944,-0.46374 6.25324,3.67348 1.64373,4.13721 2.52731,26.86214 4.05776,35.8142 1.53049,8.95206 2.77502,14.19711 5.51297,15.57135"
       id="path4382" />
    <path
       id="path4384"
       d="m 958.04313,732.02571 0,73.89332"
       style="fill:none;stroke:#0000ff;stroke-width:7.99999237;stroke-linecap:butt;stroke-linejoin:miter;stroke-miterlimit:4;stroke-dasharray:none;stroke-opacity:1" />
    <path
       style="fill:#a391ff;fill-opacity:1;stroke:#000000;stroke-width:0;stroke-linecap:butt;stroke-linejoin:miter;stroke-miterlimit:4;stroke-dasharray:none;stroke-opacity:1"
       d="m 826.17642,805.91903 0,-44.70377 c 0,0 -3.40868,-9.63374 -8.07565,-10.35526 -4.66698,-0.72152 -9.12038,-0.46374 -12.37279,3.67348 -3.2524,4.13721 -5.00062,26.86214 -8.0288,35.8142 -3.02817,8.95206 -5.49059,14.19711 -10.90824,15.57135"
       id="path3777" />
    <path
       id="path3775"
       d="m 826.17642,805.91903 0,-44.70377 c 0,0 3.40868,-9.63374 8.07564,-10.35526 4.66698,-0.72152 9.1204,-0.46374 12.3728,3.67348 3.2524,4.13721 5.00063,26.86214 8.02881,35.8142 3.02817,8.95206 5.49058,14.19711 10.90823,15.57135"
       style="fill:#a391ff;fill-opacity:1;stroke:#000000;stroke-width:0;stroke-linecap:butt;stroke-linejoin:miter;stroke-miterlimit:4;stroke-dasharray:none;stroke-opacity:1" />
    <path
       style="fill:none;stroke:#0000ff;stroke-width:7.99999237;stroke-linecap:butt;stroke-linejoin:miter;stroke-miterlimit:4;stroke-dasharray:none;stroke-opacity:1"
       d="m 826.17642,732.02571 0,73.89332"
       id="path3773" />
    <path
       id="path4516"
       d="m 315.91177,1372.7174 0,-86.8578 c 0,0 -3.40868,-18.7179 -8.07564,-20.1198 -4.66698,-1.4019 -9.12039,-0.9011 -12.3728,7.1374 -3.25239,8.0385 -5.00062,52.1921 -8.0288,69.5857 -3.02817,17.3935 -5.49058,27.5844 -10.90824,30.2545"
       style="fill:#a391ff;fill-opacity:1;stroke:#000000;stroke-width:0;stroke-linecap:butt;stroke-linejoin:miter;stroke-miterlimit:4;stroke-dasharray:none;stroke-opacity:1" />
    <path
       style="fill:#a391ff;fill-opacity:1;stroke:#000000;stroke-width:0;stroke-linecap:butt;stroke-linejoin:miter;stroke-miterlimit:4;stroke-dasharray:none;stroke-opacity:1"
       d="m 315.91177,1372.7174 0,-86.8578 c 0,0 3.40868,-18.7179 8.07565,-20.1198 4.66698,-1.4019 9.12039,-0.9011 12.3728,7.1374 3.2524,8.0385 5.00062,52.1921 8.0288,69.5857 3.02817,17.3935 5.49059,27.5844 10.90824,30.2545"
       id="path4518" />
    <path
       id="path4534"
       d="m 375.20273,1372.7174 0,-36.1481 c 0,0 -1.72276,-7.79 -4.08146,-8.3734 -2.35868,-0.5834 -4.60944,-0.375 -6.25322,2.9705 -1.64376,3.3454 -2.52732,21.721 -4.05776,28.9598 -1.53045,7.2387 -2.77496,11.48 -5.51303,12.5912"
       style="fill:#a391ff;fill-opacity:1;stroke:#000000;stroke-width:0;stroke-linecap:butt;stroke-linejoin:miter;stroke-miterlimit:4;stroke-dasharray:none;stroke-opacity:1" />
    <path
       style="fill:#a391ff;fill-opacity:1;stroke:#000000;stroke-width:0;stroke-linecap:butt;stroke-linejoin:miter;stroke-miterlimit:4;stroke-dasharray:none;stroke-opacity:1"
       d="m 375.20273,1372.7174 0,-36.1481 c 0,0 1.72274,-7.79 4.08145,-8.3734 2.35864,-0.5834 4.60945,-0.375 6.25325,2.9705 1.64373,3.3454 2.52731,21.721 4.05776,28.9598 1.53049,7.2387 2.77502,11.48 5.51297,12.5912"
       id="path4536" />
    <path
       id="path4538"
       d="m 375.20273,1312.9662 0,59.7512"
       style="fill:none;stroke:#0000ff;stroke-width:7.99999285;stroke-linecap:butt;stroke-linejoin:miter;stroke-miterlimit:4;stroke-dasharray:none;stroke-opacity:1" />
    <path
       style="fill:#a391ff;fill-opacity:1;stroke:#000000;stroke-width:0;stroke-linecap:butt;stroke-linejoin:miter;stroke-miterlimit:4;stroke-dasharray:none;stroke-opacity:1"
       d="m 243.33602,1372.7174 0,-44.7038 c 0,0 -3.40868,-9.6337 -8.07565,-10.3552 -4.66698,-0.7215 -9.12038,-0.4638 -12.37279,3.6735 -3.2524,4.1372 -5.00062,26.8621 -8.0288,35.8142 -3.02817,8.952 -5.49059,14.1971 -10.90824,15.5713"
       id="path4540" />
    <path
       id="path4542"
       d="m 243.33602,1372.7174 0,-44.7038 c 0,0 3.40868,-9.6337 8.07564,-10.3552 4.66698,-0.7215 9.1204,-0.4638 12.3728,3.6735 3.2524,4.1372 5.00063,26.8621 8.02881,35.8142 3.02817,8.952 5.49058,14.1971 10.90823,15.5713"
       style="fill:#a391ff;fill-opacity:1;stroke:#000000;stroke-width:0;stroke-linecap:butt;stroke-linejoin:miter;stroke-miterlimit:4;stroke-dasharray:none;stroke-opacity:1" />
    <path
       style="fill:none;stroke:#0000ff;stroke-width:7.99999237;stroke-linecap:butt;stroke-linejoin:miter;stroke-miterlimit:4;stroke-dasharray:none;stroke-opacity:1"
       d="m 243.33602,1298.8241 0,73.8933"
       id="path4544" />
    <path
       id="path4578"
       d="m 68.571428,1229.2757 -10e-7,143.4417 336.960323,0"
       style="fill:none;stroke:#000000;stroke-width:6;stroke-linecap:butt;stroke-linejoin:miter;stroke-miterlimit:4;stroke-dasharray:none;stroke-opacity:1" />
    <path
       id="path4520"
       d="m 315.91177,1229.1454 0,143.572"
       style="fill:none;stroke:#0000ff;stroke-width:7.99999237;stroke-linecap:butt;stroke-linejoin:miter;stroke-miterlimit:4;stroke-dasharray:none;stroke-opacity:1" />
    <path
       style="fill:none;fill-rule:evenodd;stroke:#000000;stroke-width:4;stroke-linecap:butt;stroke-linejoin:miter;stroke-miterlimit:4;stroke-dasharray:16, 16;stroke-dashoffset:0;stroke-opacity:1"
       d="m 825.18388,1068.2057 0,-259.25921"
       id="path4598" />
    <path
       style="fill:none;stroke:#000000;stroke-width:6;stroke-linecap:butt;stroke-linejoin:miter;stroke-miterlimit:4;stroke-dasharray:none;stroke-opacity:1"
       d="m 68.571429,1534.1809 -10e-7,107.9638 336.960322,0"
       id="path4718" />
    <path
       id="path4800"
       d="m 475.6711,1146.6812 0,-338.01279"
       style="fill:none;fill-rule:evenodd;stroke:#000000;stroke-width:4;stroke-linecap:butt;stroke-linejoin:miter;stroke-miterlimit:4;stroke-dasharray:16, 16;stroke-dashoffset:0;stroke-opacity:1" />
    <path
       style="display:inline;fill:#ff0000;fill-opacity:1;fill-rule:evenodd;stroke:#ff0000;stroke-width:5;stroke-linecap:butt;stroke-linejoin:miter;stroke-miterlimit:4;stroke-dasharray:none;stroke-opacity:1"
       d="m 405.53175,1503.0273 -336.960321,0.094 116.731401,-0.094 c 22.25245,-0.018 19.49169,-66.4815 32.48078,-66.4815 l 49.891,0 c 12.48727,0 11.04145,66.4475 30.80618,66.4528 l 107.05096,0.029"
       id="path8967" />
    <path
       id="path4596"
       d="m 243.33602,1568.2514 0,-145.9916"
       style="fill:none;fill-rule:evenodd;stroke:#000000;stroke-width:4;stroke-linecap:butt;stroke-linejoin:miter;stroke-miterlimit:4;stroke-dasharray:12,12;stroke-dashoffset:7.2;stroke-opacity:1" />
    <path
       id="path4297"
       d="M 243.33602,1372.7174 825.18388,1146.4185"
       style="opacity:0.284;fill:none;fill-rule:evenodd;stroke:#000000;stroke-width:6;stroke-linecap:butt;stroke-linejoin:miter;stroke-miterlimit:4;stroke-dasharray:18, 18;stroke-opacity:1;stroke-dashoffset:0" />
  </g>
  <g
     style="display:inline"
     transform="translate(-45.571427,-640.48493)"
     id="layer2">
    <text
       transform="scale(1.155303,0.86557379)"
       id="text3851"
       y="1435.3516"
       x="465.68372"
       style="font-style:normal;font-variant:normal;font-weight:normal;font-stretch:normal;font-size:35px;line-height:89.99999762%;font-family:Arial;-inkscape-font-specification:Arial;text-align:start;letter-spacing:0px;word-spacing:0px;writing-mode:lr-tb;text-anchor:start;fill:#000000;fill-opacity:1;stroke:none"
       xml:space="preserve"><tspan
         y="1435.3516"
         x="465.68372"
         id="tspan3853">IF</tspan></text>
    <text
       transform="scale(1.155303,0.86557379)"
       id="text3855"
       y="1436.194"
       x="627.00867"
       style="font-style:normal;font-variant:normal;font-weight:normal;font-stretch:normal;font-size:35px;line-height:89.99999762%;font-family:Arial;-inkscape-font-specification:Arial;text-align:start;letter-spacing:0px;word-spacing:0px;writing-mode:lr-tb;text-anchor:start;fill:#000000;fill-opacity:1;stroke:none"
       xml:space="preserve"><tspan
         y="1436.194"
         x="627.00867"
         id="tspan3857">IF</tspan></text>
    <path
       id="path3867"
       d="m 475.6711,1212.1946 0,41.2535"
       style="fill:none;stroke:#000000;stroke-width:4;stroke-linecap:butt;stroke-linejoin:miter;stroke-miterlimit:4;stroke-dasharray:none;stroke-opacity:1" />
    <path
       style="fill:none;stroke:#000000;stroke-width:4;stroke-linecap:butt;stroke-linejoin:miter;stroke-miterlimit:4;stroke-dasharray:none;stroke-opacity:1"
       d="m 651.43764,1212.1946 0,41.2534"
       id="path3869" />
    <path
       id="path3871"
       d="m 825.18388,1212.1946 0,41.2534"
       style="fill:none;stroke:#000000;stroke-width:4;stroke-linecap:butt;stroke-linejoin:miter;stroke-miterlimit:4;stroke-dasharray:none;stroke-opacity:1" />
    <path
       id="path3875"
       d="m 485.77263,1229.2757 40.33006,0"
       style="fill:none;stroke:#000000;stroke-width:4;stroke-linecap:butt;stroke-linejoin:miter;stroke-miterlimit:4;stroke-dasharray:none;stroke-opacity:1;marker-start:url(#Arrow1Sstart)" />
    <path
       id="path3877"
       d="m 592.86539,1229.2757 50.58824,0"
       style="fill:none;stroke:#000000;stroke-width:4;stroke-linecap:butt;stroke-linejoin:miter;stroke-miterlimit:4;stroke-dasharray:none;stroke-opacity:1;marker-end:url(#Arrow1Send)" />
    <path
       id="path3879"
       d="m 661.85412,1229.2757 47.75934,0"
       style="fill:none;stroke:#000000;stroke-width:4;stroke-linecap:butt;stroke-linejoin:miter;stroke-miterlimit:4;stroke-dasharray:none;stroke-opacity:1;marker-start:url(#Arrow1Sstart)" />
    <path
       id="path3881"
       d="m 778.39647,1229.2757 36.68588,0"
       style="fill:none;stroke:#000000;stroke-width:4;stroke-linecap:butt;stroke-linejoin:miter;stroke-miterlimit:4;stroke-dasharray:none;stroke-opacity:1;marker-end:url(#Arrow1Send)" />
    <text
       id="text4245"
       y="1411.1486"
       x="228.6555"
       style="font-style:normal;font-variant:normal;font-weight:normal;font-stretch:normal;font-size:35px;line-height:89.99999762%;font-family:Arial;-inkscape-font-specification:Arial;text-align:start;letter-spacing:0px;word-spacing:0px;writing-mode:lr-tb;text-anchor:start;fill:#000000;fill-opacity:1;stroke:none"
       xml:space="preserve"><tspan
         y="1411.1486"
         x="228.6555"
         id="tspan4247">IF</tspan></text>
    <text
       xml:space="preserve"
       style="font-style:normal;font-variant:normal;font-weight:normal;font-stretch:normal;font-size:35px;line-height:89.99999762%;font-family:Arial;-inkscape-font-specification:Arial;text-align:start;letter-spacing:0px;word-spacing:0px;writing-mode:lr-tb;text-anchor:start;fill:#000000;fill-opacity:1;stroke:none"
       x="800.09589"
       y="1183.0027"
       id="text4305"><tspan
         id="tspan4307"
         x="800.09589"
         y="1183.0027">RF</tspan></text>
    <text
       id="text4309"
       y="1185.8599"
       x="631.12231"
       style="font-style:normal;font-variant:normal;font-weight:normal;font-stretch:normal;font-size:35px;line-height:89.99999762%;font-family:Arial;-inkscape-font-specification:Arial;text-align:start;letter-spacing:0px;word-spacing:0px;writing-mode:lr-tb;text-anchor:start;fill:#000000;fill-opacity:1;stroke:none"
       xml:space="preserve"><tspan
         y="1185.8599"
         x="631.12231"
         id="tspan4311">LO</tspan></text>
    <text
       xml:space="preserve"
       style="font-style:normal;font-variant:normal;font-weight:normal;font-stretch:normal;font-size:35px;line-height:89.99999762%;font-family:Arial;-inkscape-font-specification:Arial;text-align:start;letter-spacing:0px;word-spacing:0px;writing-mode:lr-tb;text-anchor:start;fill:#000000;fill-opacity:1;stroke:none"
       x="440.40979"
       y="1181.5742"
       id="text4313"><tspan
         id="tspan4315"
         x="440.40979"
         y="1181.5742">Image</tspan></text>
    <text
       id="text4802"
       y="1561.9283"
       x="744.10321"
       style="font-style:normal;font-weight:normal;font-size:25px;line-height:125%;font-family:sans-serif;letter-spacing:0px;word-spacing:0px;fill:#000000;fill-opacity:1;stroke:none;stroke-width:1px;stroke-linecap:butt;stroke-linejoin:miter;stroke-opacity:1"
       xml:space="preserve"><tspan
         y="1561.9283"
         x="744.10321"
         id="tspan4804" /></text>
    <text
       xml:space="preserve"
       style="font-style:italic;font-variant:normal;font-weight:normal;font-stretch:normal;font-size:35px;line-height:89.99999762%;font-family:Arial;-inkscape-font-specification:'Arial Italic';text-align:start;letter-spacing:0px;word-spacing:0px;writing-mode:lr-tb;text-anchor:start;fill:#000000;fill-opacity:1;stroke:none"
       x="838.60419"
       y="1373.1742"
       id="text4806"
       transform="scale(1.155303,0.86557379)"><tspan
         id="tspan4808"
         x="838.60419"
         y="1373.1742">f → </tspan></text>
    <text
       transform="scale(1.155303,0.86557379)"
       id="text4814"
       y="978.71735"
       x="835.10669"
       style="font-style:italic;font-variant:normal;font-weight:normal;font-stretch:normal;font-size:35px;line-height:89.99999762%;font-family:Arial;-inkscape-font-specification:'Arial Italic';text-align:start;letter-spacing:0px;word-spacing:0px;writing-mode:lr-tb;text-anchor:start;fill:#000000;fill-opacity:1;stroke:none"
       xml:space="preserve"><tspan
         y="978.71735"
         x="835.10669"
         id="tspan4816">f → </tspan></text>
    <text
       transform="scale(1.155303,0.86557379)"
       id="text4818"
       y="1626.4203"
       x="300.8718"
       style="font-style:italic;font-variant:normal;font-weight:normal;font-stretch:normal;font-size:35px;line-height:89.99999762%;font-family:Arial;-inkscape-font-specification:'Arial Italic';text-align:start;letter-spacing:0px;word-spacing:0px;writing-mode:lr-tb;text-anchor:start;fill:#000000;fill-opacity:1;stroke:none"
       xml:space="preserve"><tspan
         y="1626.4203"
         x="300.8718"
         id="tspan4820">f → </tspan></text>
    <text
       id="text4822"
       y="687.67572"
       x="83.731911"
       style="font-style:normal;font-variant:normal;font-weight:normal;font-stretch:normal;font-size:35px;line-height:125%;font-family:Arial;-inkscape-font-specification:Arial;letter-spacing:0px;word-spacing:0px;fill:#000000;fill-opacity:1;stroke:none;stroke-width:1px;stroke-linecap:butt;stroke-linejoin:miter;stroke-opacity:1"
       xml:space="preserve"><tspan
         y="687.67572"
         x="83.731911"
         id="tspan4824">Antenna</tspan></text>
    <text
       xml:space="preserve"
       style="font-style:normal;font-variant:normal;font-weight:normal;font-stretch:normal;font-size:35px;line-height:125%;font-family:Arial;-inkscape-font-specification:Arial;letter-spacing:0px;word-spacing:0px;fill:#000000;fill-opacity:1;stroke:none;stroke-width:1px;stroke-linecap:butt;stroke-linejoin:miter;stroke-opacity:1"
       x="83.731911"
       y="1016.9855"
       id="text4826"><tspan
         id="tspan4828"
         x="83.731911"
         y="1016.9855">Mixer input</tspan></text>
    <text
       id="text4830"
       y="1245.3815"
       x="81.711609"
       style="font-style:normal;font-variant:normal;font-weight:normal;font-stretch:normal;font-size:35px;line-height:125%;font-family:Arial;-inkscape-font-specification:Arial;letter-spacing:0px;word-spacing:0px;fill:#000000;fill-opacity:1;stroke:none;stroke-width:1px;stroke-linecap:butt;stroke-linejoin:miter;stroke-opacity:1"
       xml:space="preserve"><tspan
         y="1245.3815"
         x="81.711609"
         id="tspan4832">Mixer output</tspan></text>
    <text
       xml:space="preserve"
       style="font-style:normal;font-variant:normal;font-weight:normal;font-stretch:normal;font-size:35px;line-height:100%;font-family:Arial;-inkscape-font-specification:Arial;letter-spacing:0px;word-spacing:0px;fill:#000000;fill-opacity:1;stroke:none;stroke-width:1px;stroke-linecap:butt;stroke-linejoin:miter;stroke-opacity:1"
       x="77.079269"
       y="1559.264"
       id="text4834"><tspan
         id="tspan4836"
         x="77.079269"
         y="1559.264">IF filter</tspan><tspan
         id="tspan4857"
         x="77.079269"
         y="1594.264"> output</tspan></text>
    <text
       xml:space="preserve"
       style="font-style:normal;font-variant:normal;font-weight:normal;font-stretch:normal;font-size:35px;line-height:125%;font-family:Arial;-inkscape-font-specification:Arial;letter-spacing:0px;word-spacing:0px;fill:#ff0000;fill-opacity:1;stroke:#ff0000;stroke-width:1px;stroke-linecap:butt;stroke-linejoin:miter;stroke-opacity:1"
       x="71.610077"
       y="1455.3916"
       id="text4838"><tspan
         id="tspan4840"
         x="71.610077"
         y="1455.3916">IF filter</tspan></text>
    <text
       xml:space="preserve"
       style="font-style:normal;font-variant:normal;font-weight:normal;font-stretch:normal;font-size:35px;line-height:125%;font-family:Arial;-inkscape-font-specification:Arial;letter-spacing:0px;word-spacing:0px;fill:#ff0000;fill-opacity:1;stroke:#ff0000;stroke-width:1px;stroke-linecap:butt;stroke-linejoin:miter;stroke-opacity:1"
       x="83.731918"
       y="903.84839"
       id="text4842"><tspan
         id="tspan4844"
         x="83.731918"
         y="903.84839">RF filter</tspan></text>
    <text
       xml:space="preserve"
       style="font-style:normal;font-variant:normal;font-weight:normal;font-stretch:normal;font-size:35px;line-height:89.99999762%;font-family:Arial;-inkscape-font-specification:Arial;text-align:start;letter-spacing:0px;word-spacing:0px;writing-mode:lr-tb;text-anchor:start;fill:#000000;fill-opacity:1;stroke:none"
       x="802.55084"
       y="720.14557"
       id="text4849"><tspan
         id="tspan4851"
         x="802.55084"
         y="720.14557">S1</tspan></text>
    <text
       id="text4853"
       y="723.00269"
       x="468.26514"
       style="font-style:normal;font-variant:normal;font-weight:normal;font-stretch:normal;font-size:35px;line-height:89.99999762%;font-family:Arial;-inkscape-font-specification:Arial;text-align:start;letter-spacing:0px;word-spacing:0px;writing-mode:lr-tb;text-anchor:start;fill:#000000;fill-opacity:1;stroke:none"
       xml:space="preserve"><tspan
         y="723.00269"
         x="468.26514"
         id="tspan4855">S2</tspan></text>
    <text
       xml:space="preserve"
       style="font-style:normal;font-variant:normal;font-weight:normal;font-stretch:normal;font-size:35px;line-height:89.99999762%;font-family:Arial;-inkscape-font-specification:Arial;text-align:start;letter-spacing:0px;word-spacing:0px;writing-mode:lr-tb;text-anchor:start;fill:#000000;fill-opacity:1;stroke:none"
       x="257.48776"
       y="1579.886"
       id="text4299"><tspan
         id="tspan4301"
         x="257.48776"
         y="1579.886">S1</tspan></text>
  </g>
</svg>
